<?xml version="1.0" encoding="UTF-8"?>
<svg version="1.1" viewBox="0 0 16 16" xmlns="http://www.w3.org/2000/svg">
 <g fill="#e95420">
  <circle class="cls-2" cx="2.269685" cy="7.24835" r="2.269685"/>
  <circle class="cls-2" cx="11.74588" cy="2.269685" r="2.269685"/>
  <path class="cls-2" d="m7.394781 13.1056c-1.642122-0.355619-3.001842-1.401557-3.775836-2.876329-0.606644 0.271944-1.286504 0.355619-1.945444 0.240565 0.9308847 2.290604 2.907707 3.943186 5.334283 4.466155 0.5334283 0.115053 1.077316 0.16735 1.610744 0.16735-0.4183752-0.543887-0.6484815-1.213288-0.6694003-1.903607-0.1882688-0.020918-0.3765376-0.052297-0.5543471-0.094134z"/>
  <circle class="cls-2" cx="11.23337" cy="13.11606" r="2.269685"/>
  <path class="cls-2" d="m14.39211 12.27931c0.711237-0.889047 1.202828-1.945444 1.443394-3.064598 0.418375-1.955904 0.03138-4.005942-1.077316-5.668984-0.261485 0.6171034-0.711238 1.140072-1.276044 1.495691 0.617103 1.160991 0.805372 2.489332 0.522969 3.775836-0.135972 0.6275627-0.376538 1.223747-0.711238 1.757175 0.533428 0.439294 0.909966 1.025019 1.087775 1.69442z"/>
  <path class="cls-2" d="m2.091876 3.995483h0.1778095c0.2301063 0 0.4602126 0.020919 0.690319 0.073216 0.3660782 0.083675 0.7216971 0.2196469 1.035478 0.4183751 1.025019-1.474772 2.677601-2.35336 4.466155-2.384738 0-0.1673501 0.031378-0.3451595 0.073216-0.5125096 0.1045934-0.4915911 0.313781-0.9413444 0.617103-1.328341-2.85541-0.2301063-5.637605 1.244666-7.049622 3.744458z"/>
 </g>
</svg>
